<mxfile host="app.diagrams.net" modified="2024-04-03T07:50:02.258Z" agent="Mozilla/5.0 (Windows NT 10.0; Win64; x64) AppleWebKit/537.36 (KHTML, like Gecko) Chrome/123.0.0.0 Safari/537.36" etag="KRIhpi1M9rEsmoOb03NM" version="24.2.1" type="github">
  <diagram name="Page-1" id="0783ab3e-0a74-02c8-0abd-f7b4e66b4bec">
    <mxGraphModel dx="2074" dy="1098" grid="1" gridSize="10" guides="1" tooltips="1" connect="1" arrows="1" fold="1" page="1" pageScale="1" pageWidth="850" pageHeight="1100" background="none" math="0" shadow="0">
      <root>
        <mxCell id="0" />
        <mxCell id="1" parent="0" />
        <mxCell id="1c1d494c118603dd-1" value="Nová položka" style="swimlane;html=1;childLayout=stackLayout;startSize=20;rounded=0;shadow=0;comic=0;labelBackgroundColor=none;strokeWidth=1;fontFamily=Verdana;fontSize=12;align=center;" parent="1" vertex="1">
          <mxGeometry x="40" y="20" width="780" height="1070" as="geometry" />
        </mxCell>
        <mxCell id="1c1d494c118603dd-2" value="IT" style="swimlane;html=1;startSize=20;" parent="1c1d494c118603dd-1" vertex="1">
          <mxGeometry y="20" width="280" height="1050" as="geometry" />
        </mxCell>
        <mxCell id="60571a20871a0731-4" value="" style="ellipse;whiteSpace=wrap;html=1;rounded=0;shadow=0;comic=0;labelBackgroundColor=none;strokeWidth=1;fillColor=#000000;fontFamily=Verdana;fontSize=12;align=center;" parent="1c1d494c118603dd-2" vertex="1">
          <mxGeometry x="80" y="40" width="40" height="40" as="geometry" />
        </mxCell>
        <mxCell id="WVPvbf7FzlAn0PAtydQu-21" style="edgeStyle=orthogonalEdgeStyle;rounded=0;orthogonalLoop=1;jettySize=auto;html=1;exitX=0.5;exitY=1;exitDx=0;exitDy=0;" edge="1" parent="1c1d494c118603dd-2" source="60571a20871a0731-8" target="WVPvbf7FzlAn0PAtydQu-20">
          <mxGeometry relative="1" as="geometry" />
        </mxCell>
        <mxCell id="60571a20871a0731-8" value="Příjde nové vybavení" style="rounded=1;whiteSpace=wrap;html=1;shadow=0;comic=0;labelBackgroundColor=none;strokeWidth=1;fontFamily=Verdana;fontSize=12;align=center;arcSize=50;" parent="1c1d494c118603dd-2" vertex="1">
          <mxGeometry x="50" y="110" width="100" height="30" as="geometry" />
        </mxCell>
        <mxCell id="1c1d494c118603dd-27" style="edgeStyle=orthogonalEdgeStyle;rounded=0;html=1;labelBackgroundColor=none;startArrow=none;startFill=0;startSize=5;endArrow=classicThin;endFill=1;endSize=5;jettySize=auto;orthogonalLoop=1;strokeWidth=1;fontFamily=Verdana;fontSize=12" parent="1c1d494c118603dd-2" source="60571a20871a0731-4" target="60571a20871a0731-8" edge="1">
          <mxGeometry relative="1" as="geometry" />
        </mxCell>
        <mxCell id="WVPvbf7FzlAn0PAtydQu-39" style="edgeStyle=orthogonalEdgeStyle;rounded=0;orthogonalLoop=1;jettySize=auto;html=1;exitX=0.5;exitY=1;exitDx=0;exitDy=0;entryX=0.5;entryY=0;entryDx=0;entryDy=0;" edge="1" parent="1c1d494c118603dd-2" source="WVPvbf7FzlAn0PAtydQu-20" target="WVPvbf7FzlAn0PAtydQu-38">
          <mxGeometry relative="1" as="geometry" />
        </mxCell>
        <mxCell id="WVPvbf7FzlAn0PAtydQu-20" value="Dojde k základnímu nastavení" style="rounded=1;whiteSpace=wrap;html=1;shadow=0;comic=0;labelBackgroundColor=none;strokeWidth=1;fontFamily=Verdana;fontSize=12;align=center;arcSize=50;" vertex="1" parent="1c1d494c118603dd-2">
          <mxGeometry x="50" y="170" width="100" height="50" as="geometry" />
        </mxCell>
        <mxCell id="WVPvbf7FzlAn0PAtydQu-24" style="edgeStyle=orthogonalEdgeStyle;rounded=0;orthogonalLoop=1;jettySize=auto;html=1;entryX=0;entryY=0.5;entryDx=0;entryDy=0;" edge="1" parent="1c1d494c118603dd-2" source="WVPvbf7FzlAn0PAtydQu-22" target="1c1d494c118603dd-15">
          <mxGeometry relative="1" as="geometry" />
        </mxCell>
        <mxCell id="WVPvbf7FzlAn0PAtydQu-22" value="Vypsání karty majetku" style="rounded=1;whiteSpace=wrap;html=1;shadow=0;comic=0;labelBackgroundColor=none;strokeWidth=1;fontFamily=Verdana;fontSize=12;align=center;arcSize=50;" vertex="1" parent="1c1d494c118603dd-2">
          <mxGeometry x="50" y="350" width="100" height="50" as="geometry" />
        </mxCell>
        <mxCell id="1c1d494c118603dd-15" value="Karta majetku" style="rounded=0;whiteSpace=wrap;html=1;shadow=0;comic=0;labelBackgroundColor=none;strokeWidth=1;fontFamily=Verdana;fontSize=12;align=center;arcSize=50;fillColor=#fff2cc;strokeColor=#d6b656;" parent="1c1d494c118603dd-2" vertex="1">
          <mxGeometry x="170" y="360" width="70" height="30" as="geometry" />
        </mxCell>
        <mxCell id="WVPvbf7FzlAn0PAtydQu-41" style="edgeStyle=orthogonalEdgeStyle;rounded=0;orthogonalLoop=1;jettySize=auto;html=1;exitX=1;exitY=0.5;exitDx=0;exitDy=0;entryX=0;entryY=0.5;entryDx=0;entryDy=0;" edge="1" parent="1c1d494c118603dd-2" source="WVPvbf7FzlAn0PAtydQu-38" target="WVPvbf7FzlAn0PAtydQu-40">
          <mxGeometry relative="1" as="geometry" />
        </mxCell>
        <mxCell id="WVPvbf7FzlAn0PAtydQu-42" style="edgeStyle=orthogonalEdgeStyle;rounded=0;orthogonalLoop=1;jettySize=auto;html=1;exitX=0.5;exitY=1;exitDx=0;exitDy=0;" edge="1" parent="1c1d494c118603dd-2" source="WVPvbf7FzlAn0PAtydQu-38" target="WVPvbf7FzlAn0PAtydQu-22">
          <mxGeometry relative="1" as="geometry" />
        </mxCell>
        <mxCell id="WVPvbf7FzlAn0PAtydQu-38" value="Zapsání do tabulky it" style="rounded=1;whiteSpace=wrap;html=1;shadow=0;comic=0;labelBackgroundColor=none;strokeWidth=1;fontFamily=Verdana;fontSize=12;align=center;arcSize=50;" vertex="1" parent="1c1d494c118603dd-2">
          <mxGeometry x="50" y="260" width="100" height="50" as="geometry" />
        </mxCell>
        <mxCell id="WVPvbf7FzlAn0PAtydQu-40" value="Zápis v IT tabulce" style="rounded=0;whiteSpace=wrap;html=1;shadow=0;comic=0;labelBackgroundColor=none;strokeWidth=1;fontFamily=Verdana;fontSize=12;align=center;arcSize=50;fillColor=#fff2cc;strokeColor=#d6b656;" vertex="1" parent="1c1d494c118603dd-2">
          <mxGeometry x="170" y="270" width="70" height="30" as="geometry" />
        </mxCell>
        <mxCell id="WVPvbf7FzlAn0PAtydQu-55" style="edgeStyle=orthogonalEdgeStyle;rounded=0;orthogonalLoop=1;jettySize=auto;html=1;exitX=1;exitY=0.5;exitDx=0;exitDy=0;entryX=0;entryY=0.5;entryDx=0;entryDy=0;" edge="1" parent="1c1d494c118603dd-2" source="WVPvbf7FzlAn0PAtydQu-51" target="WVPvbf7FzlAn0PAtydQu-54">
          <mxGeometry relative="1" as="geometry" />
        </mxCell>
        <mxCell id="WVPvbf7FzlAn0PAtydQu-57" style="edgeStyle=orthogonalEdgeStyle;rounded=0;orthogonalLoop=1;jettySize=auto;html=1;exitX=0.5;exitY=1;exitDx=0;exitDy=0;entryX=0.5;entryY=0;entryDx=0;entryDy=0;" edge="1" parent="1c1d494c118603dd-2" source="WVPvbf7FzlAn0PAtydQu-51" target="WVPvbf7FzlAn0PAtydQu-56">
          <mxGeometry relative="1" as="geometry" />
        </mxCell>
        <mxCell id="WVPvbf7FzlAn0PAtydQu-51" value="Doplnění DH" style="rounded=1;whiteSpace=wrap;html=1;shadow=0;comic=0;labelBackgroundColor=none;strokeWidth=1;fontFamily=Verdana;fontSize=12;align=center;arcSize=50;" vertex="1" parent="1c1d494c118603dd-2">
          <mxGeometry x="50" y="870" width="100" height="50" as="geometry" />
        </mxCell>
        <mxCell id="WVPvbf7FzlAn0PAtydQu-54" value="Zápis v IT tabulce" style="rounded=0;whiteSpace=wrap;html=1;shadow=0;comic=0;labelBackgroundColor=none;strokeWidth=1;fontFamily=Verdana;fontSize=12;align=center;arcSize=50;fillColor=#fff2cc;strokeColor=#d6b656;" vertex="1" parent="1c1d494c118603dd-2">
          <mxGeometry x="170" y="880" width="70" height="30" as="geometry" />
        </mxCell>
        <mxCell id="WVPvbf7FzlAn0PAtydQu-56" value="" style="ellipse;whiteSpace=wrap;html=1;rounded=0;shadow=0;comic=0;labelBackgroundColor=none;strokeWidth=1;fillColor=#000000;fontFamily=Verdana;fontSize=12;align=center;" vertex="1" parent="1c1d494c118603dd-2">
          <mxGeometry x="80" y="950" width="40" height="40" as="geometry" />
        </mxCell>
        <mxCell id="1c1d494c118603dd-3" value="Účtárna" style="swimlane;html=1;startSize=20;" parent="1c1d494c118603dd-1" vertex="1">
          <mxGeometry x="280" y="20" width="250" height="1050" as="geometry" />
        </mxCell>
        <mxCell id="WVPvbf7FzlAn0PAtydQu-49" style="edgeStyle=orthogonalEdgeStyle;rounded=0;orthogonalLoop=1;jettySize=auto;html=1;exitX=1;exitY=0.5;exitDx=0;exitDy=0;entryX=0;entryY=0.5;entryDx=0;entryDy=0;" edge="1" parent="1c1d494c118603dd-3" source="WVPvbf7FzlAn0PAtydQu-30" target="WVPvbf7FzlAn0PAtydQu-31">
          <mxGeometry relative="1" as="geometry" />
        </mxCell>
        <mxCell id="WVPvbf7FzlAn0PAtydQu-30" value="Zapsání do K2" style="rounded=1;whiteSpace=wrap;html=1;shadow=0;comic=0;labelBackgroundColor=none;strokeWidth=1;fontFamily=Verdana;fontSize=12;align=center;arcSize=50;" vertex="1" parent="1c1d494c118603dd-3">
          <mxGeometry x="40" y="662.5" width="100" height="40" as="geometry" />
        </mxCell>
        <mxCell id="WVPvbf7FzlAn0PAtydQu-31" value="Karta majetku v K2" style="rounded=0;whiteSpace=wrap;html=1;shadow=0;comic=0;labelBackgroundColor=none;strokeWidth=1;fontFamily=Verdana;fontSize=12;align=center;arcSize=50;fillColor=#fff2cc;strokeColor=#d6b656;" vertex="1" parent="1c1d494c118603dd-3">
          <mxGeometry x="160" y="660" width="70" height="42.5" as="geometry" />
        </mxCell>
        <mxCell id="WVPvbf7FzlAn0PAtydQu-34" value="Vytvoření DH" style="rounded=1;whiteSpace=wrap;html=1;shadow=0;comic=0;labelBackgroundColor=none;strokeWidth=1;fontFamily=Verdana;fontSize=12;align=center;arcSize=50;" vertex="1" parent="1c1d494c118603dd-3">
          <mxGeometry x="40" y="752.5" width="100" height="40" as="geometry" />
        </mxCell>
        <mxCell id="WVPvbf7FzlAn0PAtydQu-44" style="edgeStyle=orthogonalEdgeStyle;rounded=0;orthogonalLoop=1;jettySize=auto;html=1;exitX=0.5;exitY=1;exitDx=0;exitDy=0;entryX=0.5;entryY=0;entryDx=0;entryDy=0;" edge="1" parent="1c1d494c118603dd-3" source="WVPvbf7FzlAn0PAtydQu-30" target="WVPvbf7FzlAn0PAtydQu-34">
          <mxGeometry relative="1" as="geometry" />
        </mxCell>
        <mxCell id="1c1d494c118603dd-4" value="Zaměstnanec" style="swimlane;html=1;startSize=20;" parent="1c1d494c118603dd-1" vertex="1">
          <mxGeometry x="530" y="20" width="250" height="1050" as="geometry" />
        </mxCell>
        <mxCell id="WVPvbf7FzlAn0PAtydQu-46" style="edgeStyle=orthogonalEdgeStyle;rounded=0;orthogonalLoop=1;jettySize=auto;html=1;exitX=0.5;exitY=1;exitDx=0;exitDy=0;entryX=0.5;entryY=0;entryDx=0;entryDy=0;" edge="1" parent="1c1d494c118603dd-4" source="WVPvbf7FzlAn0PAtydQu-26" target="WVPvbf7FzlAn0PAtydQu-45">
          <mxGeometry relative="1" as="geometry" />
        </mxCell>
        <mxCell id="WVPvbf7FzlAn0PAtydQu-26" value="Podepsání karty majetku" style="rounded=1;whiteSpace=wrap;html=1;shadow=0;comic=0;labelBackgroundColor=none;strokeWidth=1;fontFamily=Verdana;fontSize=12;align=center;arcSize=50;" vertex="1" parent="1c1d494c118603dd-4">
          <mxGeometry x="75" y="470" width="100" height="40" as="geometry" />
        </mxCell>
        <mxCell id="WVPvbf7FzlAn0PAtydQu-45" value="Předání vybavení" style="rounded=1;whiteSpace=wrap;html=1;shadow=0;comic=0;labelBackgroundColor=none;strokeWidth=1;fontFamily=Verdana;fontSize=12;align=center;arcSize=50;" vertex="1" parent="1c1d494c118603dd-4">
          <mxGeometry x="75" y="550" width="100" height="40" as="geometry" />
        </mxCell>
        <mxCell id="WVPvbf7FzlAn0PAtydQu-27" style="edgeStyle=orthogonalEdgeStyle;rounded=0;orthogonalLoop=1;jettySize=auto;html=1;exitX=0.5;exitY=1;exitDx=0;exitDy=0;entryX=0.5;entryY=0;entryDx=0;entryDy=0;" edge="1" parent="1c1d494c118603dd-1" source="WVPvbf7FzlAn0PAtydQu-22" target="WVPvbf7FzlAn0PAtydQu-26">
          <mxGeometry relative="1" as="geometry">
            <mxPoint x="660" y="370" as="targetPoint" />
            <Array as="points">
              <mxPoint x="100" y="460" />
              <mxPoint x="655" y="460" />
            </Array>
          </mxGeometry>
        </mxCell>
        <mxCell id="WVPvbf7FzlAn0PAtydQu-47" style="edgeStyle=orthogonalEdgeStyle;rounded=0;orthogonalLoop=1;jettySize=auto;html=1;exitX=0.5;exitY=1;exitDx=0;exitDy=0;" edge="1" parent="1c1d494c118603dd-1" source="WVPvbf7FzlAn0PAtydQu-45" target="WVPvbf7FzlAn0PAtydQu-30">
          <mxGeometry relative="1" as="geometry" />
        </mxCell>
        <mxCell id="WVPvbf7FzlAn0PAtydQu-52" style="edgeStyle=orthogonalEdgeStyle;rounded=0;orthogonalLoop=1;jettySize=auto;html=1;exitX=0.5;exitY=1;exitDx=0;exitDy=0;" edge="1" parent="1c1d494c118603dd-1" source="WVPvbf7FzlAn0PAtydQu-34" target="WVPvbf7FzlAn0PAtydQu-51">
          <mxGeometry relative="1" as="geometry" />
        </mxCell>
      </root>
    </mxGraphModel>
  </diagram>
</mxfile>
